<svg width="275" height="98" viewBox="0 0 275 98" fill="none" xmlns="http://www.w3.org/2000/svg">
<path d="M0 38.1818L16.8283 26.7273V86.4041L0 74.9495V38.1818Z" fill="url(#paint0_linear_269_1677)"/>
<path d="M34.2223 0L16.9697 11.596L34.2223 23.1919L34.3637 98L68.4445 75.2323V51.6162L51.3334 63.0707V11.596L34.2223 0Z" fill="url(#paint1_linear_269_1677)"/>
<path d="M99.8487 30.6364V67H92.1605V30.6364H99.8487ZM114.096 51.233V67H106.532V39.7273H113.741V44.5391H114.061C114.664 42.9529 115.676 41.6982 117.097 40.7749C118.517 39.8397 120.24 39.3722 122.264 39.3722C124.158 39.3722 125.809 39.7865 127.218 40.6151C128.626 41.4437 129.721 42.6274 130.502 44.1662C131.284 45.6932 131.674 47.5161 131.674 49.6349V67H124.11V50.9844C124.122 49.3153 123.696 48.0133 122.832 47.0781C121.968 46.1312 120.778 45.6577 119.263 45.6577C118.245 45.6577 117.345 45.8767 116.564 46.3146C115.795 46.7526 115.191 47.3918 114.753 48.2322C114.327 49.0608 114.108 50.0611 114.096 51.233ZM152.642 39.7273V45.4091H136.218V39.7273H152.642ZM139.947 33.1932H147.511V58.6193C147.511 59.3177 147.617 59.8622 147.83 60.2528C148.043 60.6316 148.339 60.898 148.718 61.0518C149.109 61.2057 149.558 61.2827 150.067 61.2827C150.423 61.2827 150.778 61.2531 151.133 61.1939C151.488 61.1229 151.76 61.0696 151.95 61.0341L153.139 66.6626C152.76 66.781 152.228 66.9171 151.541 67.071C150.855 67.2367 150.02 67.3374 149.038 67.3729C147.215 67.4439 145.617 67.2012 144.244 66.6449C142.882 66.0885 141.823 65.2244 141.065 64.0526C140.308 62.8807 139.935 61.401 139.947 59.6136V33.1932ZM170.205 67.5327C167.4 67.5327 164.985 66.9645 162.961 65.8281C160.949 64.6799 159.398 63.0582 158.309 60.9631C157.22 58.8561 156.675 56.3643 156.675 53.4879C156.675 50.6825 157.22 48.2204 158.309 46.1016C159.398 43.9827 160.931 42.3314 162.908 41.1477C164.896 39.964 167.228 39.3722 169.903 39.3722C171.703 39.3722 173.378 39.6622 174.928 40.2422C176.491 40.8104 177.852 41.6686 179.012 42.8168C180.184 43.965 181.095 45.4091 181.746 47.1491C182.397 48.8774 182.723 50.9015 182.723 53.2216V55.299H159.694V50.6115H175.603C175.603 49.5225 175.366 48.5578 174.893 47.7173C174.419 46.8769 173.762 46.2199 172.922 45.7464C172.093 45.2611 171.129 45.0185 170.028 45.0185C168.879 45.0185 167.862 45.2848 166.974 45.8175C166.098 46.3383 165.411 47.0426 164.914 47.9304C164.417 48.8063 164.162 49.7829 164.151 50.8601V55.3168C164.151 56.6662 164.399 57.8321 164.896 58.8146C165.405 59.7971 166.121 60.5547 167.045 61.0874C167.968 61.62 169.063 61.8864 170.33 61.8864C171.17 61.8864 171.939 61.768 172.638 61.5312C173.336 61.2945 173.934 60.9394 174.431 60.4659C174.928 59.9924 175.307 59.4124 175.567 58.7259L182.563 59.1875C182.208 60.8684 181.48 62.3362 180.379 63.5909C179.29 64.8338 177.882 65.8045 176.153 66.5028C174.437 67.1894 172.454 67.5327 170.205 67.5327ZM195.723 30.6364V67H188.159V30.6364H195.723ZM209.846 30.6364V67H202.282V30.6364H209.846ZM224.182 67.5149C222.442 67.5149 220.891 67.2131 219.53 66.6094C218.169 65.9938 217.092 65.0883 216.299 63.8928C215.517 62.6854 215.127 61.1821 215.127 59.3828C215.127 57.8677 215.405 56.5952 215.961 55.5653C216.518 54.5355 217.275 53.7069 218.234 53.0795C219.193 52.4522 220.282 51.9787 221.501 51.6591C222.732 51.3395 224.022 51.1146 225.372 50.9844C226.958 50.8187 228.236 50.6648 229.207 50.5227C230.178 50.3688 230.882 50.1439 231.32 49.848C231.758 49.5521 231.977 49.1141 231.977 48.5341V48.4276C231.977 47.303 231.622 46.433 230.912 45.8175C230.213 45.2019 229.219 44.8942 227.929 44.8942C226.567 44.8942 225.484 45.196 224.679 45.7997C223.874 46.3916 223.342 47.1373 223.081 48.0369L216.086 47.4688C216.441 45.8116 217.139 44.3793 218.181 43.1719C219.222 41.9527 220.566 41.0175 222.211 40.3665C223.868 39.7036 225.786 39.3722 227.964 39.3722C229.479 39.3722 230.929 39.5497 232.314 39.9048C233.711 40.2599 234.948 40.8104 236.025 41.5561C237.114 42.3018 237.972 43.2607 238.6 44.4325C239.227 45.5926 239.541 46.9834 239.541 48.6051V67H232.368V63.218H232.154C231.717 64.0703 231.131 64.822 230.397 65.473C229.663 66.1122 228.781 66.6153 227.751 66.9822C226.721 67.3374 225.532 67.5149 224.182 67.5149ZM226.348 62.2947C227.461 62.2947 228.444 62.0758 229.296 61.6378C230.148 61.188 230.817 60.5843 231.302 59.8267C231.788 59.0691 232.03 58.2109 232.03 57.2521V54.358C231.793 54.5118 231.468 54.6539 231.054 54.7841C230.651 54.9025 230.195 55.0149 229.686 55.1214C229.177 55.2161 228.668 55.3049 228.159 55.3878C227.65 55.4588 227.189 55.5239 226.775 55.5831C225.887 55.7133 225.111 55.9205 224.449 56.2045C223.786 56.4886 223.271 56.8733 222.904 57.3587C222.537 57.8321 222.353 58.424 222.353 59.1342C222.353 60.1641 222.726 60.9512 223.472 61.4957C224.23 62.0284 225.188 62.2947 226.348 62.2947ZM246.051 67V30.6364H253.615V44.3082H253.846C254.177 43.5743 254.657 42.8286 255.284 42.071C255.923 41.3016 256.752 40.6624 257.77 40.1534C258.8 39.6326 260.078 39.3722 261.605 39.3722C263.594 39.3722 265.429 39.893 267.109 40.9347C268.79 41.9645 270.134 43.5211 271.14 45.6044C272.146 47.6759 272.649 50.2741 272.649 53.3991C272.649 56.4413 272.158 59.0099 271.175 61.1051C270.205 63.1884 268.879 64.7687 267.198 65.8459C265.529 66.9112 263.659 67.4439 261.587 67.4439C260.12 67.4439 258.871 67.2012 257.841 66.7159C256.823 66.2306 255.988 65.621 255.337 64.8871C254.686 64.1413 254.189 63.3897 253.846 62.6321H253.509V67H246.051ZM253.455 53.3636C253.455 54.9853 253.68 56.3999 254.13 57.6072C254.58 58.8146 255.231 59.7557 256.083 60.4304C256.935 61.0933 257.971 61.4247 259.19 61.4247C260.421 61.4247 261.463 61.0874 262.315 60.4126C263.168 59.7261 263.813 58.7791 264.251 57.5717C264.701 56.3525 264.925 54.9498 264.925 53.3636C264.925 51.7893 264.706 50.4044 264.268 49.2088C263.83 48.0133 263.185 47.0781 262.333 46.4034C261.481 45.7287 260.433 45.3913 259.19 45.3913C257.959 45.3913 256.918 45.7169 256.065 46.3679C255.225 47.0189 254.58 47.9422 254.13 49.1378C253.68 50.3333 253.455 51.742 253.455 53.3636Z" fill="#5A3295"/>
<defs>
<linearGradient id="paint0_linear_269_1677" x1="8.41414" y1="26.7273" x2="8.41414" y2="86.4041" gradientUnits="userSpaceOnUse">
<stop stop-color="#3D1675"/>
<stop offset="0.515" stop-color="#5A3295"/>
<stop offset="1" stop-color="#E75A76"/>
</linearGradient>
<linearGradient id="paint1_linear_269_1677" x1="42.7071" y1="0" x2="42.7071" y2="98" gradientUnits="userSpaceOnUse">
<stop stop-color="#3D1675"/>
<stop offset="0.515" stop-color="#5A3295"/>
<stop offset="1" stop-color="#E75A76"/>
</linearGradient>
</defs>
</svg>
