<svg width="134" height="142" viewBox="0 0 134 142" fill="none" xmlns="http://www.w3.org/2000/svg">
<path d="M34 38.1818L50.8283 26.7273V86.4041L34 74.9495V38.1818Z" fill="url(#paint0_linear_269_1676)"/>
<path d="M68.2223 0L50.9697 11.596L68.2223 23.1919L68.3637 98L102.444 75.2323V51.6162L85.3334 63.0707V11.596L68.2223 0Z" fill="url(#paint1_linear_269_1676)"/>
<path d="M7.81108 106.818V133H2.27557V106.818H7.81108ZM18.0692 121.648V133H12.6231V113.364H17.8135V116.828H18.0436C18.4783 115.686 19.2069 114.783 20.2297 114.118C21.2524 113.445 22.4925 113.108 23.9498 113.108C25.3135 113.108 26.5024 113.406 27.5166 114.003C28.5308 114.599 29.3192 115.452 29.8817 116.56C30.4442 117.659 30.7254 118.972 30.7254 120.497V133H25.2794V121.469C25.2879 120.267 24.9811 119.33 24.3589 118.656C23.7368 117.974 22.8802 117.634 21.7893 117.634C21.0564 117.634 20.4087 117.791 19.8462 118.107C19.2922 118.422 18.8575 118.882 18.5422 119.487C18.2354 120.084 18.0777 120.804 18.0692 121.648ZM45.8223 113.364V117.455H33.997V113.364H45.8223ZM36.6816 108.659H42.1277V126.966C42.1277 127.469 42.2044 127.861 42.3578 128.142C42.5112 128.415 42.7243 128.607 42.997 128.717C43.2782 128.828 43.6021 128.884 43.9686 128.884C44.2243 128.884 44.4799 128.862 44.7356 128.82C44.9913 128.768 45.1873 128.73 45.3237 128.705L46.1802 132.757C45.9075 132.842 45.524 132.94 45.0297 133.051C44.5353 133.17 43.9345 133.243 43.2271 133.268C41.9146 133.32 40.764 133.145 39.7754 132.744C38.7953 132.344 38.0325 131.722 37.487 130.878C36.9416 130.034 36.6731 128.969 36.6816 127.682V108.659ZM58.4678 133.384C56.4479 133.384 54.7093 132.974 53.2519 132.156C51.803 131.33 50.6865 130.162 49.9024 128.653C49.1184 127.136 48.7263 125.342 48.7263 123.271C48.7263 121.251 49.1184 119.479 49.9024 117.953C50.6865 116.428 51.7902 115.239 53.2135 114.386C54.6453 113.534 56.3243 113.108 58.2505 113.108C59.5459 113.108 60.7519 113.317 61.8684 113.734C62.9934 114.143 63.9735 114.761 64.8087 115.588C65.6524 116.415 66.3087 117.455 66.7774 118.707C67.2462 119.952 67.4806 121.409 67.4806 123.08V124.575H50.8996V121.2H62.3542C62.3542 120.416 62.1837 119.722 61.8428 119.116C61.5019 118.511 61.0289 118.038 60.4238 117.697C59.8272 117.348 59.1326 117.173 58.3399 117.173C57.5132 117.173 56.7803 117.365 56.1411 117.749C55.5104 118.124 55.0161 118.631 54.6581 119.27C54.3002 119.901 54.1169 120.604 54.1084 121.379V124.588C54.1084 125.56 54.2874 126.399 54.6453 127.107C55.0118 127.814 55.5274 128.359 56.1922 128.743C56.857 129.126 57.6453 129.318 58.5573 129.318C59.1624 129.318 59.7164 129.233 60.2192 129.062C60.722 128.892 61.1524 128.636 61.5104 128.295C61.8684 127.955 62.1411 127.537 62.3286 127.043L67.3655 127.375C67.1098 128.585 66.5857 129.642 65.7931 130.545C65.009 131.44 63.9948 132.139 62.7505 132.642C61.5147 133.136 60.0871 133.384 58.4678 133.384ZM76.8406 106.818V133H71.3945V106.818H76.8406ZM87.0092 106.818V133H81.5631V106.818H87.0092ZM97.3312 133.371C96.0783 133.371 94.9619 133.153 93.9817 132.719C93.0016 132.276 92.2261 131.624 91.655 130.763C91.0925 129.893 90.8113 128.811 90.8113 127.516C90.8113 126.425 91.0116 125.509 91.4121 124.767C91.8127 124.026 92.3582 123.429 93.0485 122.977C93.7388 122.526 94.5229 122.185 95.4008 121.955C96.2871 121.724 97.2161 121.562 98.1877 121.469C99.3297 121.349 100.25 121.239 100.949 121.136C101.648 121.026 102.155 120.864 102.47 120.651C102.786 120.437 102.943 120.122 102.943 119.705V119.628C102.943 118.818 102.688 118.192 102.176 117.749C101.673 117.305 100.958 117.084 100.029 117.084C99.0485 117.084 98.2687 117.301 97.6891 117.736C97.1096 118.162 96.7261 118.699 96.5386 119.347L91.5016 118.938C91.7573 117.744 92.2601 116.713 93.0101 115.844C93.7601 114.966 94.7275 114.293 95.9121 113.824C97.1053 113.347 98.486 113.108 100.054 113.108C101.145 113.108 102.189 113.236 103.186 113.491C104.192 113.747 105.083 114.143 105.858 114.68C106.642 115.217 107.26 115.908 107.712 116.751C108.164 117.587 108.389 118.588 108.389 119.756V133H103.225V130.277H103.071C102.756 130.891 102.334 131.432 101.806 131.901C101.277 132.361 100.642 132.723 99.9008 132.987C99.1593 133.243 98.3028 133.371 97.3312 133.371ZM98.8908 129.612C99.692 129.612 100.399 129.455 101.013 129.139C101.627 128.815 102.108 128.381 102.458 127.835C102.807 127.29 102.982 126.672 102.982 125.982V123.898C102.811 124.009 102.577 124.111 102.279 124.205C101.989 124.29 101.661 124.371 101.294 124.447C100.928 124.516 100.561 124.58 100.195 124.639C99.8283 124.69 99.4959 124.737 99.1976 124.78C98.5584 124.874 98.0002 125.023 97.5229 125.227C97.0457 125.432 96.6749 125.709 96.4107 126.058C96.1465 126.399 96.0144 126.825 96.0144 127.337C96.0144 128.078 96.2829 128.645 96.8198 129.037C97.3653 129.42 98.0556 129.612 98.8908 129.612ZM113.077 133V106.818H118.523V116.662H118.689C118.928 116.134 119.273 115.597 119.725 115.051C120.185 114.497 120.781 114.037 121.514 113.67C122.256 113.295 123.176 113.108 124.276 113.108C125.707 113.108 127.029 113.483 128.239 114.233C129.449 114.974 130.416 116.095 131.141 117.595C131.865 119.087 132.227 120.957 132.227 123.207C132.227 125.398 131.874 127.247 131.166 128.756C130.467 130.256 129.513 131.393 128.303 132.169C127.101 132.936 125.754 133.32 124.263 133.32C123.206 133.32 122.307 133.145 121.565 132.795C120.832 132.446 120.232 132.007 119.763 131.479C119.294 130.942 118.936 130.401 118.689 129.855H118.446V133H113.077ZM118.408 123.182C118.408 124.349 118.57 125.368 118.894 126.237C119.217 127.107 119.686 127.784 120.3 128.27C120.913 128.747 121.659 128.986 122.537 128.986C123.423 128.986 124.173 128.743 124.787 128.257C125.401 127.763 125.865 127.081 126.181 126.212C126.504 125.334 126.666 124.324 126.666 123.182C126.666 122.048 126.509 121.051 126.193 120.19C125.878 119.33 125.413 118.656 124.8 118.17C124.186 117.685 123.432 117.442 122.537 117.442C121.651 117.442 120.901 117.676 120.287 118.145C119.682 118.614 119.217 119.278 118.894 120.139C118.57 121 118.408 122.014 118.408 123.182Z" fill="#5A3295"/>
<defs>
<linearGradient id="paint0_linear_269_1676" x1="42.4141" y1="26.7273" x2="42.4141" y2="86.4041" gradientUnits="userSpaceOnUse">
<stop stop-color="#3D1675"/>
<stop offset="0.515" stop-color="#5A3295"/>
<stop offset="1" stop-color="#E75A76"/>
</linearGradient>
<linearGradient id="paint1_linear_269_1676" x1="76.7071" y1="0" x2="76.7071" y2="98" gradientUnits="userSpaceOnUse">
<stop stop-color="#3D1675"/>
<stop offset="0.515" stop-color="#5A3295"/>
<stop offset="1" stop-color="#E75A76"/>
</linearGradient>
</defs>
</svg>
