<?xml version="1.0" encoding="utf-8"?>
<svg xmlns="http://www.w3.org/2000/svg" viewBox="-1.063 188.711 1705.075 406.2965" width="1705.08px" height="406.296px">
  <defs>
    <linearGradient id="paint1_linear_45_104" x1="-72.111" y1="540.068" x2="1625.889" y2="540.068" gradientUnits="userSpaceOnUse">
      <stop stop-color="#3F20FB"/>
      <stop offset="0.353" style="stop-color: rgb(255, 119, 162);"/>
    </linearGradient>
  </defs>
  <g transform="matrix(1, 0, 0, 0.6100789904594421, 143.936996459961, 113.06099700927734)" style="">
    <path d="M1553 338.047C1553 338.047 1291.94 304.49 1128.5 338.047C959.847 372.675 718.093 344.881 562.5 258.9C492.929 220.455 303.804 171.521 126.208 137.815C-37.5648 106.732 -145 137.815 -145 137.815V746.5C-145 746.5 291.445 696.279 623 696.279C954.555 696.279 1553 789.974 1553 789.974V338.047Z" fill-opacity="0.2" style="fill: rgb(251, 32, 161);"/>
  </g>
  <g transform="matrix(1, 0, 0, 0.4624020159244538, 120.01200103759771, 150.97900390625)" style="">
    <path d="M-114 240.047C-114 240.047 147.061 206.49 310.5 240.047C479.153 274.675 720.907 346.881 876.5 260.9C946.071 222.455 1135.2 173.521 1312.79 139.815C1476.56 108.732 1584 139.815 1584 139.815V566.5C1584 566.5 1147.56 698.279 816 698.279C484.445 698.279 -91.5 590.5 -91.5 590.5L-114 240.047Z" fill="url(#paint1_linear_45_104)" fill-opacity="0.2"/>
  </g>
</svg>