<svg width="15" height="15" viewBox="0 0 15 15" fill="none" xmlns="http://www.w3.org/2000/svg">
<path id="rate" d="M7.5 12.1275L3.97938 14.7989C3.80494 14.9407 3.61463 15.0075 3.40847 14.9993C3.20231 14.9918 3.01994 14.9328 2.86135 14.8225C2.70276 14.7122 2.58002 14.5625 2.49311 14.3733C2.40557 14.1842 2.40145 13.9793 2.48074 13.7587L3.83666 9.38522L0.387404 6.95026C0.1971 6.82418 0.0781604 6.6587 0.0305845 6.45382C-0.0169914 6.24893 -0.00906202 6.05981 0.0543725 5.88645C0.117807 5.71308 0.228817 5.55926 0.387404 5.42499C0.54599 5.29134 0.736294 5.22452 0.958314 5.22452H5.21636L6.59606 0.68557C6.67535 0.464927 6.79841 0.295347 6.96525 0.17683C7.13144 0.0589435 7.3097 0 7.5 0C7.6903 0 7.86856 0.0589435 8.03475 0.17683C8.20159 0.295347 8.32465 0.464927 8.40394 0.68557L9.78364 5.22452H14.0417C14.2637 5.22452 14.454 5.29134 14.6126 5.42499C14.7712 5.55926 14.8822 5.71308 14.9456 5.88645C15.0091 6.05981 15.017 6.24893 14.9694 6.45382C14.9218 6.6587 14.8029 6.82418 14.6126 6.95026L11.1633 9.38522L12.5193 13.7587C12.5985 13.9793 12.5947 14.1842 12.5078 14.3733C12.4203 14.5625 12.2972 14.7122 12.1386 14.8225C11.9801 14.9328 11.7977 14.9918 11.5915 14.9993C11.3854 15.0075 11.1951 14.9407 11.0206 14.7989L7.5 12.1275Z" fill="#E2B93B"/>
</svg>
